{
  "accessors": [
    {
      "bufferView": 2,
      "componentType": 5126,
      "count": 308,
      "max": [
        0.10000000149011612,
        0.5300000309944153,
        0.10000000149011612
      ],
      "min": [
        -0.10000000149011612,
        0.0,
        -0.10000009089708328
      ],
      "type": "VEC3"
    },
    {
      "bufferView": 2,
      "byteOffset": 3696,
      "componentType": 5126,
      "count": 308,
      "max": [
        1.0,
        1.0,
        1.0
      ],
      "min": [
        -1.0,
        -1.0,
        -1.0
      ],
      "type": "VEC3"
    },
    {
      "bufferView": 1,
      "componentType": 5126,
      "count": 308,
      "max": [
        1.0,
        1.0
      ],
      "min": [
        0.0,
        0.0
      ],
      "type": "VEC2"
    },
    {
      "bufferView": 0,
      "componentType": 5125,
      "count": 624,
      "type": "SCALAR"
    },
    {
      "bufferView": 2,
      "byteOffset": 7392,
      "componentType": 5126,
      "count": 62,
      "max": [
        0.09600000083446503,
        0.5279862880706787,
        0.09999991208314896
      ],
      "min": [
        -0.09600000083446503,
        0.020000020042061806,
        -0.10000009089708328
      ],
      "type": "VEC3"
    },
    {
      "bufferView": 2,
      "byteOffset": 8136,
      "componentType": 5126,
      "count": 62,
      "max": [
        0.7032058238983154,
        0.9965173006057739,
        0.7298514246940613
      ],
      "min": [
        -0.7032058238983154,
        -0.6836100816726685,
        -0.7298514246940613
      ],
      "type": "VEC3"
    },
    {
      "bufferView": 1,
      "byteOffset": 2464,
      "componentType": 5126,
      "count": 62,
      "max": [
        1.0,
        1.0
      ],
      "min": [
        0.0,
        0.0
      ],
      "type": "VEC2"
    },
    {
      "bufferView": 0,
      "byteOffset": 2496,
      "componentType": 5125,
      "count": 246,
      "type": "SCALAR"
    },
    {
      "bufferView": 2,
      "byteOffset": 8880,
      "componentType": 5126,
      "count": 1260,
      "max": [
        0.37700000405311584,
        0.5,
        0.125
      ],
      "min": [
        -0.37700000405311584,
        0.0,
        -0.125
      ],
      "type": "VEC3"
    },
    {
      "bufferView": 2,
      "byteOffset": 24000,
      "componentType": 5126,
      "count": 1260,
      "max": [
        1.0,
        1.0,
        1.0
      ],
      "min": [
        -1.0,
        -1.0,
        -1.0
      ],
      "type": "VEC3"
    },
    {
      "bufferView": 1,
      "byteOffset": 2960,
      "componentType": 5126,
      "count": 1260,
      "max": [
        1.0790283679962158,
        1.0790283679962158
      ],
      "min": [
        -0.07902831584215164,
        -0.07902832329273224
      ],
      "type": "VEC2"
    },
    {
      "bufferView": 0,
      "byteOffset": 3480,
      "componentType": 5125,
      "count": 4266,
      "type": "SCALAR"
    },
    {
      "bufferView": 2,
      "byteOffset": 39120,
      "componentType": 5126,
      "count": 12,
      "max": [
        0.3707500100135803,
        0.49000000953674316,
        0.11874999850988388
      ],
      "min": [
        0.13324999809265137,
        0.49000000953674316,
        -0.11874999850988388
      ],
      "type": "VEC3"
    },
    {
      "bufferView": 2,
      "byteOffset": 39264,
      "componentType": 5126,
      "count": 12,
      "max": [
        0.03158728405833244,
        1.0,
        0.03158728405833244
      ],
      "min": [
        -0.03158728405833244,
        0.9995009899139404,
        -0.03158728405833244
      ],
      "type": "VEC3"
    },
    {
      "bufferView": 1,
      "byteOffset": 13040,
      "componentType": 5126,
      "count": 12,
      "max": [
        1.0000001192092896,
        1.0790283679962158
      ],
      "min": [
        1.0,
        -0.07902832329273224
      ],
      "type": "VEC2"
    },
    {
      "bufferView": 0,
      "byteOffset": 20544,
      "componentType": 5125,
      "count": 24,
      "type": "SCALAR"
    },
    {
      "bufferView": 2,
      "byteOffset": 39408,
      "componentType": 5126,
      "count": 12,
      "max": [
        0.11874999850988388,
        0.49000000953674316,
        0.11874999850988388
      ],
      "min": [
        -0.11874999850988388,
        0.49000000953674316,
        -0.11874999850988388
      ],
      "type": "VEC3"
    },
    {
      "bufferView": 2,
      "byteOffset": 39552,
      "componentType": 5126,
      "count": 12,
      "max": [
        0.03158728405833244,
        1.0,
        0.03158728405833244
      ],
      "min": [
        -0.03158728405833244,
        0.9995009899139404,
        -0.03158728405833244
      ],
      "type": "VEC3"
    },
    {
      "bufferView": 1,
      "byteOffset": 13136,
      "componentType": 5126,
      "count": 12,
      "max": [
        1.0790283679962158,
        1.0790283679962158
      ],
      "min": [
        -0.07902831584215164,
        -0.07902831584215164
      ],
      "type": "VEC2"
    },
    {
      "bufferView": 0,
      "byteOffset": 20640,
      "componentType": 5125,
      "count": 24,
      "type": "SCALAR"
    },
    {
      "bufferView": 2,
      "byteOffset": 39696,
      "componentType": 5126,
      "count": 12,
      "max": [
        -0.13324999809265137,
        0.49000000953674316,
        0.11874999850988388
      ],
      "min": [
        -0.3707500100135803,
        0.49000000953674316,
        -0.11874999850988388
      ],
      "type": "VEC3"
    },
    {
      "bufferView": 2,
      "byteOffset": 39840,
      "componentType": 5126,
      "count": 12,
      "max": [
        0.03158728405833244,
        1.0,
        0.03158728405833244
      ],
      "min": [
        -0.03158728405833244,
        0.9995009899139404,
        -0.03158728405833244
      ],
      "type": "VEC3"
    },
    {
      "bufferView": 1,
      "byteOffset": 13232,
      "componentType": 5126,
      "count": 12,
      "max": [
        0.0,
        1.0790283679962158
      ],
      "min": [
        0.0,
        -0.07902831584215164
      ],
      "type": "VEC2"
    },
    {
      "bufferView": 0,
      "byteOffset": 20736,
      "componentType": 5125,
      "count": 24,
      "type": "SCALAR"
    },
    {
      "bufferView": 2,
      "byteOffset": 39984,
      "componentType": 5126,
      "count": 12,
      "max": [
        0.3707500100135803,
        0.48750001192092896,
        0.11999999731779099
      ],
      "min": [
        -0.3707500100135803,
        0.012500002980232239,
        0.11999999731779099
      ],
      "type": "VEC3"
    },
    {
      "bufferView": 2,
      "byteOffset": 40128,
      "componentType": 5126,
      "count": 12,
      "max": [
        0.0,
        0.0,
        1.0
      ],
      "min": [
        0.0,
        0.0,
        1.0
      ],
      "type": "VEC3"
    },
    {
      "bufferView": 1,
      "byteOffset": 13328,
      "componentType": 5126,
      "count": 12,
      "max": [
        1.0,
        0.0
      ],
      "min": [
        0.0,
        0.0
      ],
      "type": "VEC2"
    },
    {
      "bufferView": 0,
      "byteOffset": 20832,
      "componentType": 5125,
      "count": 18,
      "type": "SCALAR"
    },
    {
      "bufferView": 2,
      "byteOffset": 40272,
      "componentType": 5126,
      "count": 776,
      "max": [
        0.15739546716213226,
        0.5,
        0.15739546716213226
      ],
      "min": [
        -0.15739546716213226,
        0.0,
        -0.15739546716213226
      ],
      "type": "VEC3"
    },
    {
      "bufferView": 2,
      "byteOffset": 49584,
      "componentType": 5126,
      "count": 776,
      "max": [
        0.9405436515808105,
        0.8819096088409424,
        0.9405437707901001
      ],
      "min": [
        -0.9405436515808105,
        -0.8819096088409424,
        -0.9405437707901001
      ],
      "type": "VEC3"
    },
    {
      "bufferView": 1,
      "byteOffset": 13424,
      "componentType": 5126,
      "count": 776,
      "max": [
        3.3597099781036377,
        3.9166665077209473
      ],
      "min": [
        -2.499100685119629,
        -1.9166665077209473
      ],
      "type": "VEC2"
    },
    {
      "bufferView": 0,
      "byteOffset": 20904,
      "componentType": 5125,
      "count": 3168,
      "type": "SCALAR"
    },
    {
      "bufferView": 2,
      "byteOffset": 58896,
      "componentType": 5126,
      "count": 502,
      "max": [
        0.14900000393390656,
        0.44999998807907104,
        0.14900000393390656
      ],
      "min": [
        -0.14900000393390656,
        0.009999999776482582,
        -0.14900000393390656
      ],
      "type": "VEC3"
    },
    {
      "bufferView": 2,
      "byteOffset": 64920,
      "componentType": 5126,
      "count": 502,
      "max": [
        0.9914926886558533,
        0.990149974822998,
        0.9914926886558533
      ],
      "min": [
        -0.9914926886558533,
        -0.990149974822998,
        -0.9915041327476501
      ],
      "type": "VEC3"
    },
    {
      "bufferView": 1,
      "byteOffset": 19632,
      "componentType": 5126,
      "count": 502,
      "max": [
        1.0,
        0.9077450037002563
      ],
      "min": [
        0.0,
        0.0
      ],
      "type": "VEC2"
    },
    {
      "bufferView": 0,
      "byteOffset": 33576,
      "componentType": 5125,
      "count": 1980,
      "type": "SCALAR"
    }
  ],
  "asset": {
    "extras": {
      "author": "Mitya Petrov (https://sketchfab.com/mitya-petrov)",
      "license": "CC-BY-4.0 (http://creativecommons.org/licenses/by/4.0/)",
      "source": "https://sketchfab.com/3d-models/waste-bins-f25c067806dd45aba900502e9c470e7a",
      "title": "Waste Bins"
    },
    "generator": "Sketchfab-12.63.0",
    "version": "2.0"
  },
  "bufferViews": [
    {
      "buffer": 0,
      "byteLength": 41496,
      "name": "floatBufferViews",
      "target": 34963
    },
    {
      "buffer": 0,
      "byteLength": 23648,
      "byteOffset": 41496,
      "byteStride": 8,
      "name": "floatBufferViews",
      "target": 34962
    },
    {
      "buffer": 0,
      "byteLength": 70944,
      "byteOffset": 65144,
      "byteStride": 12,
      "name": "floatBufferViews",
      "target": 34962
    }
  ],
  "buffers": [
    {
      "byteLength": 136088,
      "uri": "scene.bin"
    }
  ],
  "materials": [
    {
      "doubleSided": true,
      "name": "Blue",
      "pbrMetallicRoughness": {
        "baseColorFactor": [
          0.021266599999999997,
          0.028078500000000027,
          0.5277190000000002,
          1.0
        ],
        "roughnessFactor": 0.1780350704388061
      }
    },
    {
      "doubleSided": true,
      "name": "Metal",
      "pbrMetallicRoughness": {
        "baseColorFactor": [
          0.0637208,
          0.0637208,
          0.0637208,
          1.0
        ],
        "metallicFactor": 0.865248,
        "roughnessFactor": 0.3361195726854301
      }
    },
    {
      "doubleSided": true,
      "name": "material",
      "pbrMetallicRoughness": {
        "baseColorFactor": [
          0.517334,
          0.019434700000000006,
          0.021676999999999936,
          1.0
        ],
        "roughnessFactor": 0.175
      }
    },
    {
      "doubleSided": true,
      "name": "Yellow",
      "pbrMetallicRoughness": {
        "baseColorFactor": [
          0.420025,
          0.3410360000000001,
          0.012694999999999996,
          1.0
        ],
        "roughnessFactor": 0.175
      }
    },
    {
      "doubleSided": true,
      "name": "Metal_Light",
      "pbrMetallicRoughness": {
        "baseColorFactor": [
          0.134475,
          0.147314,
          0.143297,
          1.0
        ],
        "metallicFactor": 0.865248,
        "roughnessFactor": 0.06251178033550396
      }
    },
    {
      "doubleSided": true,
      "name": "Wood",
      "pbrMetallicRoughness": {
        "baseColorFactor": [
          0.0871399,
          0.0216189,
          0.0029626,
          1.0
        ],
        "metallicFactor": 0.0,
        "roughnessFactor": 0.794326
      }
    }
  ],
  "meshes": [
    {
      "name": "Object_0",
      "primitives": [
        {
          "attributes": {
            "NORMAL": 1,
            "POSITION": 0,
            "TEXCOORD_0": 2
          },
          "indices": 3,
          "material": 0,
          "mode": 4
        }
      ]
    },
    {
      "name": "Object_1",
      "primitives": [
        {
          "attributes": {
            "NORMAL": 5,
            "POSITION": 4,
            "TEXCOORD_0": 6
          },
          "indices": 7,
          "material": 1,
          "mode": 4
        }
      ]
    },
    {
      "name": "Object_2",
      "primitives": [
        {
          "attributes": {
            "NORMAL": 9,
            "POSITION": 8,
            "TEXCOORD_0": 10
          },
          "indices": 11,
          "material": 1,
          "mode": 4
        }
      ]
    },
    {
      "name": "Object_3",
      "primitives": [
        {
          "attributes": {
            "NORMAL": 13,
            "POSITION": 12,
            "TEXCOORD_0": 14
          },
          "indices": 15,
          "material": 2,
          "mode": 4
        }
      ]
    },
    {
      "name": "Object_4",
      "primitives": [
        {
          "attributes": {
            "NORMAL": 17,
            "POSITION": 16,
            "TEXCOORD_0": 18
          },
          "indices": 19,
          "material": 3,
          "mode": 4
        }
      ]
    },
    {
      "name": "Object_5",
      "primitives": [
        {
          "attributes": {
            "NORMAL": 21,
            "POSITION": 20,
            "TEXCOORD_0": 22
          },
          "indices": 23,
          "material": 0,
          "mode": 4
        }
      ]
    },
    {
      "name": "Object_6",
      "primitives": [
        {
          "attributes": {
            "NORMAL": 25,
            "POSITION": 24,
            "TEXCOORD_0": 26
          },
          "indices": 27,
          "material": 4,
          "mode": 4
        }
      ]
    },
    {
      "name": "Object_7",
      "primitives": [
        {
          "attributes": {
            "NORMAL": 29,
            "POSITION": 28,
            "TEXCOORD_0": 30
          },
          "indices": 31,
          "material": 5,
          "mode": 4
        }
      ]
    },
    {
      "name": "Object_8",
      "primitives": [
        {
          "attributes": {
            "NORMAL": 33,
            "POSITION": 32,
            "TEXCOORD_0": 34
          },
          "indices": 35,
          "material": 1,
          "mode": 4
        }
      ]
    }
  ],
  "nodes": [
    {
      "children": [
        1
      ],
      "matrix": [
        1.0,
        0.0,
        0.0,
        0.0,
        0.0,
        2.220446049250313e-16,
        -1.0,
        0.0,
        0.0,
        1.0,
        2.220446049250313e-16,
        0.0,
        0.0,
        0.0,
        0.0,
        1.0
      ],
      "name": "Sketchfab_model"
    },
    {
      "children": [
        2
      ],
      "name": "root"
    },
    {
      "children": [
        3,
        6,
        12
      ],
      "matrix": [
        1.0,
        0.0,
        0.0,
        0.0,
        0.0,
        2.220446049250313e-16,
        1.0,
        0.0,
        0.0,
        -1.0,
        2.220446049250313e-16,
        0.0,
        0.0,
        0.0,
        0.0,
        1.0
      ],
      "name": "GLTF_SceneRootNode"
    },
    {
      "children": [
        4,
        5
      ],
      "matrix": [
        1.0,
        0.0,
        0.0,
        0.0,
        0.0,
        1.0,
        0.0,
        0.0,
        0.0,
        0.0,
        1.0,
        0.0,
        -0.20000001788139343,
        0.0,
        0.19999998807907104,
        1.0
      ],
      "name": "Bin3_0"
    },
    {
      "mesh": 0,
      "name": "Object_4"
    },
    {
      "mesh": 1,
      "name": "Object_5"
    },
    {
      "children": [
        7,
        8,
        9,
        10,
        11
      ],
      "matrix": [
        1.0,
        0.0,
        0.0,
        0.0,
        0.0,
        1.0,
        0.0,
        0.0,
        0.0,
        0.0,
        1.0,
        0.0,
        0.0,
        0.0,
        -0.20000001788139343,
        1.0
      ],
      "name": "Bin2_1"
    },
    {
      "mesh": 2,
      "name": "Object_7"
    },
    {
      "mesh": 3,
      "name": "Object_8"
    },
    {
      "mesh": 4,
      "name": "Object_9"
    },
    {
      "mesh": 5,
      "name": "Object_10"
    },
    {
      "mesh": 6,
      "name": "Object_11"
    },
    {
      "children": [
        13,
        14
      ],
      "matrix": [
        1.0,
        0.0,
        0.0,
        0.0,
        0.0,
        1.0,
        0.0,
        0.0,
        0.0,
        0.0,
        1.0,
        0.0,
        0.20000001788139343,
        0.0,
        0.20000001788139343,
        1.0
      ],
      "name": "Bin1_2"
    },
    {
      "mesh": 7,
      "name": "Object_13"
    },
    {
      "mesh": 8,
      "name": "Object_14"
    }
  ],
  "scene": 0,
  "scenes": [
    {
      "name": "Sketchfab_Scene",
      "nodes": [
        0
      ]
    }
  ]
}
